<svg xmlns="http://www.w3.org/2000/svg" width="555.417" height="396.903" viewBox="0 0 555.417 396.903">
  <g id="Gruppe_25" data-name="Gruppe 25" transform="translate(1282.93 -261.272)">
    <path id="Pfad_12963" data-name="Pfad 12963" d="M16.53-26.315C10.735-18.43,7.79-10.83,7.79-4.18c0,13.015,11.5,21.945,27.93,21.945a74.212,74.212,0,0,0,38-10.925C84.55.19,91.2-8.55,92.435-17.86c1.805-13.775-11.21-23.75-21.28-33.44-6.65-6.46-12.065-12.54-11.78-19.76C59.66-82.46,77.71-93.48,95.95-93.48c13.11,0,24.13,6.175,24.13,13.585,0,2.85-1.615,5.89-4.94,9.025l1.71,1.805c3.705-3.61,5.7-7.315,5.7-10.83,0-8.93-11.97-16.055-26.6-16.055-19.57,0-38.665,11.97-39.045,24.795-.285,8.17,5.795,15.1,12.54,21.66C79.61-39.71,91.58-30.59,89.965-18.24,88.825-9.6,82.65-1.52,72.485,4.75A72.728,72.728,0,0,1,35.72,15.3c-15.1,0-25.46-7.98-25.46-19.475,0-6.175,2.755-13.205,8.265-20.71ZM168.34-9.025c-15.1,6.365-26.695,10.07-31.445,10.07-2.945,0-4.18-.855-4.18-2.755,0-3.61,3.705-9.88,4.75-11.5l-.76-.475-1.14-1.14-3.04,3.04a6.389,6.389,0,0,0-6.08-3.7c-5.7,0-12.065,6.65-12.065,12.35,0,2.375,1.14,4.465,3.04,4.465,3.8,0,9.88-4.845,14.345-9.025a16.365,16.365,0,0,0-1.52,5.985c0,3.325,2.47,5.225,6.65,5.225,6.46,0,21.565-5.7,32.395-10.26Zm-51.49,5.89c0-4.275,5.32-9.88,9.6-9.88A3.961,3.961,0,0,1,130.53-9.88c-4.275,3.99-9.975,8.74-13.11,8.74C117.23-1.14,116.85-2.09,116.85-3.135Zm100.32-5.89C206.435-4.465,188.1-.285,181.925-.19a10.909,10.909,0,0,1-1.805-.095C187.53-5.89,191.52-19,181.545-19,175.465-19,167.2-5.89,173.28-.285A4.512,4.512,0,0,1,170.9-.95c-7.885-4.37,18.05-39.9,41.8-56.905l-1.425-2C190.665-45.125,157.795-5.415,169.67,1.14a8.016,8.016,0,0,0,7.03.475,16.642,16.642,0,0,0,5.225.665c6.46-.095,25.27-4.465,36.195-9.025ZM181.545-16.53c7.125,0,2.09,12.16-4.655,15.485C169.575-4.465,176.7-16.53,181.545-16.53Zm63.08-5.89-1.33-2.09-4.94,3.23,1.33,2.09Zm34.295,13.4C269.325-4.275,254.03,0,242.82,0c-10.45,0-15.295-2.09-15.295-6.08,0-2.565,1.425-4.75,5.32-8.075l-1.615-1.9-.1.1c-1.615,1.33-5.89,3.515-13.965,6.935l.95,2.28c3.23-1.425,5.89-2.565,8.075-3.61a9.014,9.014,0,0,0-1.14,4.275c0,5.8,5.985,8.55,17.765,8.55,11.59,0,27.455-4.465,37.24-9.215Zm79.8,0C349.125-4.465,337.44,0,326.23,0c-7.03,0-10.355-1.52-10.355-4.37,0-1.71,1.52-4.18,3.04-6.555,2.565-3.99,3.42-6.745,0-6.745-1.71,0-5.13,2.09-7.315,3.325a74.793,74.793,0,0,0-8.55,6.175c2.28-4.085,3.8-8.17,2.375-9.69-2.185-2.375-5.6-.855-26.41,8.835l.95,2.28c20.235-9.4,22.895-10.26,23.75-9.4.855.95-4.94,11.495-8.74,15.295l-.19.19,1.71,1.71s8.74-8.74,16.34-13.205c3.04-1.8,4.75-2.755,5.605-2.945a18.465,18.465,0,0,1-1.615,2.85C315.3-9.88,313.4-6.84,313.4-4.37c0,4.655,4.465,6.84,12.825,6.84,11.59,0,23.845-4.655,33.63-9.215Zm47.975,0c-11.3,5.7-28.215,12.445-38.38,10.355a9.326,9.326,0,0,1-6.935-4.845c4.845,1.425,13.585-2.755,13.585-9.69,0-2.565-2.185-4.465-5.035-4.465-7.315,0-11.4,4.75-11.875,9.785v.19c-.285,4.94,2.755,10.07,9.785,11.5,10.925,2.28,28.6-4.845,39.9-10.545ZM369.93-15.2c1.52,0,2.565.855,2.565,1.995,0,6.745-11.685,9.88-11.97,5.51C360.9-11.59,364.135-15.2,369.93-15.2Z" transform="matrix(0.985, -0.174, 0.174, 0.985, -1273.94, 426.568)" fill="#2b2e34"/>
    <g id="Gruppe" transform="translate(-1091.711 399.068)">
      <path id="Pfad_12964" data-name="Pfad 12964" d="M171.58,12.328c-12.052,0-25.852,2.392-40.94,7.084-4.14-2.576-8.188-5.336-12.42-8.188C97.52-2.76,81.7-18.4,74.06-26.22a18.877,18.877,0,0,0,3.4.276c11.684,0,31.832-9.752,59.8-28.52,3.68-2.484,8-6.164,12.788-10.12,12.6-10.58,28.06-23.552,40.94-23.552v-2.392c-13.708,0-29.808,13.524-42.5,24.1-4.784,3.956-9.016,7.544-12.6,9.936C108.468-38,88.5-28.336,77.464-28.336A11.86,11.86,0,0,1,69-31.372l-1.472,1.84v.092l.276.184c.46.46,1.2,1.288,2.208,2.3,6.44,6.716,23.644,24.472,46.828,40.2q5.382,3.726,10.764,7.176c-4.324,1.38-8.74,3.036-13.248,4.784l.828,2.208c5.152-2.024,10.212-3.772,15.088-5.336C147.292,32.752,164.5,40.94,187.5,40.94c12.788,0,23.092-5.336,23.828-12.512C212.428,18.584,196.42,12.328,171.58,12.328Zm-57.5-97.152v-2.392c-18.86,0-31.28,21.988-44.16,44.9-15,26.5-30.728,54.464-58.144,54.464C5.888,12.144,1.2,8.28,1.2,3.772H-1.2c0,5.888,5.8,10.764,12.972,10.764,28.8,0,45.264-29.164,60.168-55.66C84.916-64.124,96.6-84.824,114.08-84.824ZM209.024,28.152c-.736,5.8-9.936,10.4-21.528,10.4-21.712,0-38-7.36-54.188-17.388,14.076-4.232,26.956-6.44,38.272-6.44C194.764,14.72,209.852,20.332,209.024,28.152Z" transform="matrix(0.985, -0.174, 0.174, 0.985, 16.787, 130.628)" fill="#2b2e34"/>
      <text id="nu" transform="matrix(0.985, -0.174, 0.174, 0.985, 173.599, 104.54)" fill="#2b2e34" font-size="93" font-family="Mina-Regular, Mina" letter-spacing="-0.043em"><tspan x="0" y="0">nu</tspan></text>
      <text id="t" transform="matrix(0.985, -0.174, 0.174, 0.985, 301.353, 82.014)" fill="#2b2e34" font-size="92" font-family="Mina-Regular, Mina" letter-spacing="-0.043em"><tspan x="0" y="0">t</tspan></text>
    </g>
    <g id="Gruppe_12" data-name="Gruppe 12" transform="translate(-1184.321 447.921)">
      <path id="Pfad_12961" data-name="Pfad 12961" d="M59.65,36.237c.171,2.651-3.661,4.023-16.708,5.529-11.086,1.358-24.42,2.915-24.128,11.9l2.554-.153C21.154,47.791,29.7,46.09,39.3,44.792c-.4,9.01-6.7,18.367-14.863,25.57-7.4-10.419-10.581-25.06-10-38.672l4.3-3.24C32.936,17.7,46.687,7.228,46.344-3.737c-.25-5.918-4.394-7.026-11.522-5.77L35.262-7c5.687-1,8.356-.927,8.523,3.416.3,9.585-12.4,19.271-26.5,30l-2.637,1.956c1.423-16.147,9.2-33.328,20.661-35.349l-.44-2.507c-13.2,2.327-21.774,21.737-22.84,39.9C-2.677,41.664-16.859,54.2-16.4,68.619c.848,23.4,23.516,19,40.294,5.413C31.508,83.418,42.692,88.8,58.009,86.1l-.44-2.5c-14.164,2.5-24.587-2.521-31.7-11.3,8.968-7.74,15.688-18.066,15.953-27.85.482-.083.983-.074,1.46-.158,9.45-1.071,19.378-2.225,18.808-8.282ZM-13.828,68.564C-14.3,55.735-1.894,44.408,11.917,33.725,11.63,47.286,15.06,61.681,22.443,72c-15.29,12.435-35.6,16.708-36.271-3.439" transform="translate(16.411 9.97)" fill="#2b2e34"/>
    </g>
    <g id="Gruppe-2" data-name="Gruppe" transform="translate(-915.079 551.521)">
      <text id="_1" data-name="1" transform="matrix(0.991, -0.131, 0.131, 0.991, 6.265, 70.962)" fill="#2b2e34" font-size="60" font-family="Mina-Regular, Mina" letter-spacing="-0.07em"><tspan x="0" y="0">1</tspan></text>
      <text id="_7.0" data-name="7.0" transform="matrix(0.991, -0.131, 0.131, 0.991, 23.249, 68.726)" fill="#2b2e34" font-size="60" font-family="Mina-Regular, Mina" letter-spacing="-0.07em"><tspan x="0" y="0">7.0</tspan></text>
      <path id="Pfad_12968" data-name="Pfad 12968" d="M3.6,9.912a199.623,199.623,0,0,1,20.414-29.8,35.728,35.728,0,0,0,4.543-6.195c1.239-2.537-3.363-3.717-9.5-3.717A113.446,113.446,0,0,0,2.6-28.556l.236,1.534a110.9,110.9,0,0,1,16.225-1.239c4.779,0,8.437.885,8.142,1.534a41.094,41.094,0,0,1-4.366,5.9A193.241,193.241,0,0,0,2.242,9.2ZM30.8-1.3l-.885.531.826,1.3L31.624,0Zm9.44,2.714c23.128-14.927,34.515-32.45,20.06-32.45-5.9,0-15.4,4.366-17.287,11.8l1.475.413C46.256-25.606,54.752-29.5,60.3-29.5c12.567,0-1,17.7-24.426,31.86l.413.649.177.767s27.2-6.077,24.485.472l1.475.59C65.254-2.242,48.38,0,40.238,1.416Z" transform="matrix(0.991, -0.131, 0.131, 0.991, 90.987, 58.8)" fill="#2b2e34"/>
      <text id="_1-2" data-name="1" transform="matrix(0.991, -0.131, 0.131, 0.991, 163.038, 50.322)" fill="#2b2e34" font-size="60" font-family="Mina-Regular, Mina" letter-spacing="-0.07em"><tspan x="0" y="0">1</tspan></text>
    </g>
    <g id="Gruppe-3" data-name="Gruppe" transform="translate(-915.079 551.521)">
      <path id="Pfad_12967" data-name="Pfad 12967" d="M18.96-32.52c-1.08-.84-3.24,1.26-6.24,4.02-1.32,1.26-3.06,3-4.86,4.86-1.74,1.8-3.66,3.72-5.4,5.4L3.54-17.1C5.34-18.78,7.2-20.76,9-22.56c1.8-1.86,3.48-3.6,4.8-4.8,1.56-1.44,2.64-2.28,3.3-2.82-.36.84-.9,2.04-1.86,3.9-2.58,4.74-4.14,8.04-6.66,13.38C6.84-9.12,4.56-4.32,1.14,2.76l1.38.72C6-3.6,8.22-8.46,10.02-12.24c2.52-5.34,4.02-8.58,6.54-13.32C18.48-29.1,19.98-31.68,18.96-32.52Z" transform="matrix(0.991, -0.131, 0.131, 0.991, 6.265, 70.962)" fill="#2b2e34"/>
      <path id="Pfad_12966" data-name="Pfad 12966" d="M3.66,10.08a203.006,203.006,0,0,1,20.76-30.3,36.333,36.333,0,0,0,4.62-6.3c1.26-2.58-3.42-3.78-9.66-3.78A115.368,115.368,0,0,0,2.64-29.04l.24,1.56a112.78,112.78,0,0,1,16.5-1.26c4.86,0,8.58.9,8.28,1.56a41.79,41.79,0,0,1-4.44,6A196.516,196.516,0,0,0,2.28,9.36ZM31.32-1.32l-.9.54L31.26.54l.9-.54Zm11.22-9.06c4.02-10.5,11.22-18.54,16.5-18.54,6.36,0,7.8,5.04,4.08,15.6C59.34-2.52,50.94,6.18,44.34,6.18c-6.3,0-8.52-8.58-4.74-19.26,3.78-10.86,12.36-19.74,18.9-19.74v-1.56c-7.26,0-16.32,9.3-20.4,20.82-4.08,11.7-1.38,21.3,6.24,21.3,7.32,0,16.26-9.12,20.28-20.58s2.16-17.64-5.58-17.64c-6,0-13.68,8.4-17.94,19.56Z" transform="matrix(0.991, -0.131, 0.131, 0.991, 23.249, 68.726)" fill="#2b2e34"/>
      <path id="Pfad_12965" data-name="Pfad 12965" d="M3.6,9.912a199.623,199.623,0,0,1,20.414-29.8,35.728,35.728,0,0,0,4.543-6.195c1.239-2.537-3.363-3.717-9.5-3.717A113.446,113.446,0,0,0,2.6-28.556l.236,1.534a110.9,110.9,0,0,1,16.225-1.239c4.779,0,8.437.885,8.142,1.534a41.094,41.094,0,0,1-4.366,5.9A193.241,193.241,0,0,0,2.242,9.2ZM30.8-1.3l-.885.531.826,1.3L31.624,0Zm9.44,2.714c23.128-14.927,34.515-32.45,20.06-32.45-5.9,0-15.4,4.366-17.287,11.8l1.475.413C46.256-25.606,54.752-29.5,60.3-29.5c12.567,0-1,17.7-24.426,31.86l.413.649.177.767s27.2-6.077,24.485.472l1.475.59C65.254-2.242,48.38,0,40.238,1.416Z" transform="matrix(0.991, -0.131, 0.131, 0.991, 90.987, 58.8)" fill="#2b2e34"/>
      <path id="Pfad_12969" data-name="Pfad 12969" d="M18.96-32.52c-1.08-.84-3.24,1.26-6.24,4.02-1.32,1.26-3.06,3-4.86,4.86-1.74,1.8-3.66,3.72-5.4,5.4L3.54-17.1C5.34-18.78,7.2-20.76,9-22.56c1.8-1.86,3.48-3.6,4.8-4.8,1.56-1.44,2.64-2.28,3.3-2.82-.36.84-.9,2.04-1.86,3.9-2.58,4.74-4.14,8.04-6.66,13.38C6.84-9.12,4.56-4.32,1.14,2.76l1.38.72C6-3.6,8.22-8.46,10.02-12.24c2.52-5.34,4.02-8.58,6.54-13.32C18.48-29.1,19.98-31.68,18.96-32.52Z" transform="matrix(0.991, -0.131, 0.131, 0.991, 163.038, 50.322)" fill="#2b2e34"/>
    </g>
  </g>
</svg>
